# xmcd CD database file
#
# Track frame offsets:
#	150
#	29196
#	51475
#	70487
#	91823
#	110375
#	133741
#	161493
#	173543
#
# Disc length: 2613 seconds
#
# Revision: 0
# Processed by: cddbd v1.5.1PL0 Copyright (c) Steve Scherf et al.
# Submitted via: CDex 1.51
#
DISCID=7c0a3309
DTITLE=Ned Ferr - Desert Motel
DYEAR=1999
DGENRE=Country
TTITLE0=Desert Motel
TTITLE1=Black Sand
TTITLE2=Snake
TTITLE3=Out There, In Here
TTITLE4=Better Than This
TTITLE5=A Stone Throw from Mexico
TTITLE6=Judas
TTITLE7=Could I Have Been Good
TTITLE8=The Sound of Waves
EXTD=YEAR: 1999
EXTT0=
EXTT1=
EXTT2=
EXTT3=
EXTT4=
EXTT5=
EXTT6=
EXTT7=
EXTT8=
PLAYORDER=
